# xmcd
#
# Track frame offsets:
#	150
#	16725
#	32625
#	46425
#	61800
#	81825
#	96675
#	114000
#	133125
#	144075
#	158400
#	165975
#	183600
#	197250
#	211575
#	223725
#	234375
#	257325
#
# Disc length: 3652 seconds
#
# Revision: 4
# Processed by: cddbd v1.5.2PL0 Copyright (c) Steve Scherf et al.
# Submitted via: audiograbber 1.83.01
#
DISCID=df0e4212
DTITLE=Various Artist - DKG083
DYEAR=1900
DGENRE=Karaoke
TTITLE0=Cole, Nat King And Cole, Natalie - Unforgettable
TTITLE1=Orlando, Tony And Dawn - Tie A Yellow Ribbon Round The Ole Oak Tree
TTITLE2=Tokens - The Lion Sleeps Tonight
TTITLE3=Rolling Stones - Little Queenie
TTITLE4=Braxton, Toni - Breathe Again
TTITLE5=Greenbaum, Norman - Spirit In The Sky
TTITLE6=Tag Team - Whoomp There It Is
TTITLE7=James, Tommy And The Shondells - Crystal Blue Persuasion
TTITLE8=Nelson, Ricky - Hello Mary Lou
TTITLE9=Lovett, Lyle - She's No Lady
TTITLE10=Robert Preston - Seventy Six Trombones
TTITLE11=Diffie, Joe - Prop Me Up Beside The Jukebox (If I Die)
TTITLE12=Chairman Of The Board - Give Me Just A Little More Time
TTITLE13=Berry, Chuck - Sweet Little Sixteen
TTITLE14=Rooftop Singers - Walk Right In
TTITLE15=Standard - Wearing Of The Green
TTITLE16=Rockwell - Somebody's Watching Me
TTITLE17=Blondie - One Way Or Another
EXTD=
EXTT0=
EXTT1=
EXTT2=
EXTT3=
EXTT4=
EXTT5=
EXTT6=
EXTT7=
EXTT8=
EXTT9=
EXTT10=
EXTT11=
EXTT12=
EXTT13=
EXTT14=
EXTT15=
EXTT16=
EXTT17=
PLAYORDER=
